<mxfile host="app.diagrams.net" modified="2024-01-30T07:43:39.540Z" agent="Mozilla/5.0 (Macintosh; Intel Mac OS X 10_15_7) AppleWebKit/605.1.15 (KHTML, like Gecko) Version/17.2.1 Safari/605.1.15" version="23.0.2" etag="yP8roK4O6DSZSt1WoQqD" type="github">
  <diagram name="Page-1" id="FJksLsNKTB0jEzGdaTdf">
    <mxGraphModel>
      <root>
        <mxCell id="0" />
        <mxCell id="1" parent="0" />
      </root>
    </mxGraphModel>
  </diagram>
</mxfile>
